<?xml version="1.0" standalone="no"?>
<!DOCTYPE svg PUBLIC "-//W3C//DTD SVG 20010904//EN"
 "http://www.w3.org/TR/2001/REC-SVG-20010904/DTD/svg10.dtd">
<svg version="1.0" xmlns="http://www.w3.org/2000/svg"
 width="788.000000pt" height="512.000000pt" viewBox="0 0 788.000000 512.000000"
 preserveAspectRatio="xMidYMid meet">

<g transform="translate(0.000000,512.000000) scale(0.100000,-0.100000)"
fill="#000000" stroke="none">
<path d="M3490 5114 c-797 -22 -1442 -69 -1945 -140 -310 -44 -443 -78 -590
-152 -214 -107 -381 -283 -445 -467 -40 -117 -103 -544 -134 -915 -54 -637
-44 -1410 24 -1980 40 -327 97 -625 139 -723 96 -223 322 -414 599 -507 370
-124 1721 -230 2932 -230 1199 0 2550 106 2927 229 304 99 530 300 614 544 51
151 135 750 181 1292 18 223 16 711 -5 935 -53 568 -150 1182 -214 1350 -90
241 -316 441 -609 539 -258 87 -1030 171 -1934 211 -232 11 -1318 20 -1540 14z
m758 -2034 c534 -283 972 -517 972 -520 0 -5 -2067 -1104 -2102 -1118 -4 -2
-8 501 -8 1118 l0 1121 83 -43 c45 -24 520 -275 1055 -558z"/>
</g>
</svg>
