<?xml version="1.0" standalone="no"?>
<!DOCTYPE svg PUBLIC "-//W3C//DTD SVG 20010904//EN"
 "http://www.w3.org/TR/2001/REC-SVG-20010904/DTD/svg10.dtd">
<svg version="1.0" xmlns="http://www.w3.org/2000/svg"
 width="649.000000pt" height="512.000000pt" viewBox="0 0 649.000000 512.000000"
 preserveAspectRatio="xMidYMid meet">

<g transform="translate(0.000000,512.000000) scale(0.100000,-0.100000)"
fill="#000000" stroke="none">
<path d="M4367 5105 c-115 -19 -280 -75 -388 -131 -475 -251 -746 -800 -665
-1344 8 -52 13 -96 12 -97 -6 -7 -247 20 -382 42 -791 131 -1553 553 -2070
1146 -49 56 -101 116 -115 132 l-25 30 -37 -77 c-86 -175 -127 -361 -127 -570
0 -227 38 -394 136 -591 83 -168 213 -328 369 -452 l40 -32 -43 -1 c-103 0
-320 59 -444 121 -32 16 -60 29 -63 29 -11 0 -4 -151 10 -236 85 -486 438
-882 906 -1018 l84 -24 -55 -11 c-162 -33 -315 -41 -439 -21 -35 6 -65 9 -68
7 -5 -6 39 -121 72 -187 83 -166 236 -348 386 -460 184 -137 462 -240 650
-240 27 0 49 -4 49 -10 0 -5 -44 -40 -97 -78 -336 -239 -708 -388 -1115 -447
-137 -20 -410 -29 -528 -17 -52 5 -96 8 -98 7 -5 -4 119 -80 243 -148 391
-214 853 -358 1310 -409 156 -17 594 -17 750 0 633 70 1178 273 1661 618 298
213 601 519 823 832 456 644 711 1436 711 2207 l0 173 55 41 c158 120 334 300
472 484 107 144 106 141 23 107 -129 -53 -316 -109 -466 -140 -82 -16 -156
-30 -164 -30 -8 0 8 15 35 34 122 83 255 218 341 348 47 71 138 254 150 302
l7 30 -34 -21 c-188 -113 -436 -213 -663 -268 l-99 -25 -79 76 c-159 152 -352
254 -578 305 -115 26 -337 33 -453 14z"/>
</g>
</svg>
