<?xml version="1.0" standalone="no"?>
<!DOCTYPE svg PUBLIC "-//W3C//DTD SVG 20010904//EN"
 "http://www.w3.org/TR/2001/REC-SVG-20010904/DTD/svg10.dtd">
<svg version="1.0" xmlns="http://www.w3.org/2000/svg"
 width="551.000000pt" height="512.000000pt" viewBox="0 0 551.000000 512.000000"
 preserveAspectRatio="xMidYMid meet">

<g transform="translate(0.000000,512.000000) scale(0.100000,-0.100000)"
fill="#000000" stroke="none">
<path d="M1660 5105 c-172 -24 -303 -66 -472 -152 -142 -72 -258 -156 -368
-265 -124 -124 -209 -241 -285 -393 -95 -190 -135 -331 -155 -534 -13 -134
-13 -2281 0 -2412 34 -344 186 -663 431 -908 209 -210 455 -343 761 -414 92
-21 110 -21 1293 -25 1271 -3 1313 -2 1493 43 567 144 988 595 1109 1190 15
71 17 217 20 1240 3 818 1 1197 -7 1284 -63 694 -601 1256 -1287 1346 -157 21
-2383 21 -2533 0z m2901 -833 c123 -64 144 -229 43 -324 -104 -97 -264 -64
-325 67 -26 56 -24 111 6 172 53 106 168 142 276 85z m-1366 -407 c259 -58
484 -178 664 -355 248 -243 382 -544 398 -895 25 -547 -296 -1060 -798 -1276
-590 -255 -1278 -52 -1634 482 -218 326 -280 732 -170 1114 34 121 129 312
205 414 204 276 516 469 840 521 41 6 82 13 90 15 38 10 341 -6 405 -20z"/>
<path d="M2740 3461 c-341 -76 -612 -335 -702 -671 -32 -121 -32 -339 -1 -456
95 -350 363 -604 713 -676 122 -26 307 -20 419 12 321 91 566 338 653 657 32
116 32 345 0 463 -85 317 -346 579 -657 661 -117 30 -312 35 -425 10z"/>
</g>
</svg>
