<?xml version="1.0" standalone="no"?>
<!DOCTYPE svg PUBLIC "-//W3C//DTD SVG 20010904//EN"
 "http://www.w3.org/TR/2001/REC-SVG-20010904/DTD/svg10.dtd">
<svg version="1.0" xmlns="http://www.w3.org/2000/svg"
 width="512.000000pt" height="512.000000pt" viewBox="0 0 512.000000 512.000000"
 preserveAspectRatio="xMidYMid meet">

<g transform="translate(0.000000,512.000000) scale(0.100000,-0.100000)"
fill="#000000" stroke="none">
<path d="M2370 5114 c-301 -27 -588 -99 -844 -213 -285 -127 -510 -279 -739
-501 -226 -219 -384 -434 -523 -715 -124 -252 -201 -501 -246 -800 -20 -138
-18 -560 5 -705 116 -749 520 -1380 1147 -1793 135 -89 392 -215 545 -267 120
-41 318 -92 408 -105 l47 -7 0 926 0 926 -315 0 -315 0 0 340 0 340 314 0 314
0 5 338 c6 360 12 423 63 584 47 151 107 252 209 353 131 131 265 197 475 231
77 13 145 15 365 10 149 -4 295 -10 325 -14 l55 -7 3 -297 2 -298 -233 0
c-276 0 -309 -6 -387 -77 -117 -105 -150 -240 -150 -609 l0 -214 385 0 385 0
-6 -27 c-3 -16 -26 -167 -53 -338 l-47 -310 -332 -3 -332 -2 0 -931 0 -930 38
7 c564 97 1039 338 1422 723 504 507 767 1171 747 1886 -7 228 -22 349 -73
555 -70 282 -191 558 -352 800 -408 614 -1032 1012 -1756 1121 -126 19 -450
32 -556 23z"/>
</g>
</svg>
